<mxfile modified="2020-01-24T02:41:17.152Z" host="www.draw.io" agent="Mozilla/5.0 (Macintosh; Intel Mac OS X 10_14_6) AppleWebKit/537.36 (KHTML, like Gecko) Chrome/79.0.3945.117 Safari/537.36" etag="hy7zyqmSrshqqogHqvmt" version="12.5.6" type="github">
  <diagram id="Ht1M8jgEwFfnCIfOTk4-" name="Page-1">
    <mxGraphModel dx="2066" dy="1034" grid="1" gridSize="10" guides="1" tooltips="1" connect="1" arrows="1" fold="1" page="1" pageScale="1" pageWidth="1169" pageHeight="827" math="0" shadow="0">
      <root>
        <mxCell id="0"/>
        <mxCell id="1" parent="0"/>
        <mxCell id="UEzPUAAOIrF-is8g5C7q-130" style="edgeStyle=orthogonalEdgeStyle;rounded=0;orthogonalLoop=1;jettySize=auto;html=1;startArrow=open;startFill=0;endArrow=open;endFill=0;strokeWidth=2;strokeColor=#808080;" parent="1" source="UEzPUAAOIrF-is8g5C7q-113" target="UEzPUAAOIrF-is8g5C7q-116" edge="1">
          <mxGeometry relative="1" as="geometry">
            <Array as="points">
              <mxPoint x="870" y="269"/>
              <mxPoint x="870" y="269"/>
            </Array>
            <mxPoint x="930" y="269" as="sourcePoint"/>
          </mxGeometry>
        </mxCell>
        <mxCell id="UEzPUAAOIrF-is8g5C7q-139" style="edgeStyle=orthogonalEdgeStyle;rounded=0;orthogonalLoop=1;jettySize=auto;html=1;startArrow=open;startFill=0;endArrow=open;endFill=0;strokeWidth=2;strokeColor=#808080;" parent="1" source="UEzPUAAOIrF-is8g5C7q-110" target="-vKRYrj1L0dmREyPmtsA-3" edge="1">
          <mxGeometry relative="1" as="geometry">
            <mxPoint x="270.2846463484759" y="261.67647058823536" as="sourcePoint"/>
            <mxPoint x="340" y="230" as="targetPoint"/>
            <Array as="points">
              <mxPoint x="190" y="269"/>
              <mxPoint x="190" y="269"/>
            </Array>
          </mxGeometry>
        </mxCell>
        <mxCell id="UEzPUAAOIrF-is8g5C7q-141" style="edgeStyle=orthogonalEdgeStyle;rounded=0;orthogonalLoop=1;jettySize=auto;html=1;startArrow=open;startFill=0;endArrow=open;endFill=0;strokeWidth=2;strokeColor=#808080;" parent="1" source="UEzPUAAOIrF-is8g5C7q-113" target="UEzPUAAOIrF-is8g5C7q-114" edge="1">
          <mxGeometry relative="1" as="geometry">
            <mxPoint x="500.5" y="260.22413793103453" as="sourcePoint"/>
            <mxPoint x="418.4655172413793" y="347.5" as="targetPoint"/>
            <Array as="points">
              <mxPoint x="680" y="269"/>
              <mxPoint x="680" y="269"/>
            </Array>
          </mxGeometry>
        </mxCell>
        <mxCell id="UEzPUAAOIrF-is8g5C7q-110" value="Your Phone" style="outlineConnect=0;gradientColor=none;fontColor=#545B64;strokeColor=none;fillColor=#879196;dashed=0;verticalLabelPosition=bottom;verticalAlign=top;align=center;html=1;fontSize=12;fontStyle=0;aspect=fixed;shape=mxgraph.aws4.illustration_notification;pointerEvents=1;labelBackgroundColor=#ffffff;" parent="1" vertex="1">
          <mxGeometry x="70" y="230" width="100" height="81" as="geometry"/>
        </mxCell>
        <mxCell id="UEzPUAAOIrF-is8g5C7q-113" value="list-bucket-lambda" style="outlineConnect=0;fontColor=#232F3E;gradientColor=#F78E04;gradientDirection=north;fillColor=#D05C17;strokeColor=#ffffff;dashed=0;verticalLabelPosition=bottom;verticalAlign=top;align=center;html=1;fontSize=12;fontStyle=0;aspect=fixed;shape=mxgraph.aws4.resourceIcon;resIcon=mxgraph.aws4.lambda;labelBackgroundColor=#ffffff;spacingTop=3;" parent="1" vertex="1">
          <mxGeometry x="770" y="230" width="78" height="78" as="geometry"/>
        </mxCell>
        <mxCell id="UEzPUAAOIrF-is8g5C7q-114" value="&lt;span style=&quot;color: rgb(22, 25, 31); font-size: 11px; white-space: normal;&quot;&gt;REA App store Api&lt;/span&gt;" style="outlineConnect=0;fontColor=#232F3E;gradientColor=#945DF2;gradientDirection=north;fillColor=#5A30B5;strokeColor=#ffffff;dashed=0;verticalLabelPosition=bottom;verticalAlign=top;align=center;html=1;fontSize=11;fontStyle=0;aspect=fixed;shape=mxgraph.aws4.resourceIcon;resIcon=mxgraph.aws4.api_gateway;labelBackgroundColor=#ffffff;fontFamily=Helvetica;whiteSpace=wrap;" parent="1" vertex="1">
          <mxGeometry x="551" y="230" width="78" height="78" as="geometry"/>
        </mxCell>
        <mxCell id="UEzPUAAOIrF-is8g5C7q-116" value="&lt;div style=&quot;line-height: 18px; white-space: pre;&quot;&gt;&lt;span style=&quot;&quot;&gt;app-store-content&lt;/span&gt;&lt;/div&gt;" style="outlineConnect=0;fontColor=#232F3E;gradientColor=#60A337;gradientDirection=north;fillColor=#277116;strokeColor=#ffffff;dashed=0;verticalLabelPosition=bottom;verticalAlign=top;align=center;html=1;fontSize=12;fontStyle=0;aspect=fixed;shape=mxgraph.aws4.resourceIcon;resIcon=mxgraph.aws4.s3;labelBackgroundColor=#FFFFFF;fontFamily=Helvetica;" parent="1" vertex="1">
          <mxGeometry x="970.0000000000002" y="230" width="78" height="78" as="geometry"/>
        </mxCell>
        <mxCell id="-vKRYrj1L0dmREyPmtsA-3" value="Consumer App Library Site [Static Webinator]" style="outlineConnect=0;fontColor=#232F3E;gradientColor=none;fillColor=#5A30B5;strokeColor=none;dashed=0;verticalLabelPosition=bottom;verticalAlign=top;align=center;html=1;fontSize=12;fontStyle=0;aspect=fixed;pointerEvents=1;shape=mxgraph.aws4.streaming_distribution;" vertex="1" parent="1">
          <mxGeometry x="320" y="230" width="78" height="78" as="geometry"/>
        </mxCell>
        <mxCell id="-vKRYrj1L0dmREyPmtsA-5" style="edgeStyle=orthogonalEdgeStyle;rounded=0;orthogonalLoop=1;jettySize=auto;html=1;startArrow=open;startFill=0;endArrow=open;endFill=0;strokeWidth=2;strokeColor=#808080;" edge="1" parent="1" source="UEzPUAAOIrF-is8g5C7q-114" target="-vKRYrj1L0dmREyPmtsA-3">
          <mxGeometry relative="1" as="geometry">
            <mxPoint x="540" y="268.5" as="sourcePoint"/>
            <mxPoint x="398" y="268.5" as="targetPoint"/>
            <Array as="points"/>
          </mxGeometry>
        </mxCell>
        <mxCell id="-vKRYrj1L0dmREyPmtsA-14" value="" style="rounded=1;whiteSpace=wrap;html=1;labelBackgroundColor=none;fontFamily=Helvetica;fontSize=11;fontColor=none;fillColor=none;" vertex="1" parent="1">
          <mxGeometry x="520" y="180" width="381" height="200" as="geometry"/>
        </mxCell>
        <mxCell id="-vKRYrj1L0dmREyPmtsA-15" value="" style="rounded=1;whiteSpace=wrap;html=1;labelBackgroundColor=none;fontFamily=Helvetica;fontSize=11;fontColor=none;fillColor=none;" vertex="1" parent="1">
          <mxGeometry x="924" y="180" width="170" height="200" as="geometry"/>
        </mxCell>
        <mxCell id="-vKRYrj1L0dmREyPmtsA-16" value="" style="rounded=1;whiteSpace=wrap;html=1;labelBackgroundColor=none;fontFamily=Helvetica;fontSize=11;fontColor=none;fillColor=none;" vertex="1" parent="1">
          <mxGeometry x="223.5" y="180" width="271" height="200" as="geometry"/>
        </mxCell>
        <mxCell id="-vKRYrj1L0dmREyPmtsA-17" value="Stored under /list-bucket-lambda folder" style="text;html=1;strokeColor=none;fillColor=none;align=center;verticalAlign=middle;whiteSpace=wrap;rounded=0;labelBackgroundColor=none;fontFamily=Helvetica;fontSize=11;fontColor=none;" vertex="1" parent="1">
          <mxGeometry x="550" y="390" width="330" height="20" as="geometry"/>
        </mxCell>
        <mxCell id="-vKRYrj1L0dmREyPmtsA-18" value="See static webinator for more detail" style="text;html=1;strokeColor=none;fillColor=none;align=center;verticalAlign=middle;whiteSpace=wrap;rounded=0;labelBackgroundColor=none;fontFamily=Helvetica;fontSize=11;fontColor=none;" vertex="1" parent="1">
          <mxGeometry x="241" y="390" width="236" height="20" as="geometry"/>
        </mxCell>
        <mxCell id="-vKRYrj1L0dmREyPmtsA-19" value="website contents from /src, plus apps uploaded from CI" style="text;html=1;strokeColor=none;fillColor=none;align=center;verticalAlign=middle;whiteSpace=wrap;rounded=0;labelBackgroundColor=none;fontFamily=Helvetica;fontSize=11;fontColor=none;" vertex="1" parent="1">
          <mxGeometry x="899.5" y="385" width="219" height="30" as="geometry"/>
        </mxCell>
      </root>
    </mxGraphModel>
  </diagram>
</mxfile>
